<svg xmlns="http://www.w3.org/2000/svg" viewBox="0 0 954.74 278.48"><defs><style>.cls-1,.cls-3,.cls-5{fill:#fff;}.cls-2{fill:none;}
.cls-3{font-size:170px;letter-spacing:-0.04em;}.cls-3,.cls-5{font-family:GillSansMT, Gill Sans MT;}.cls-4{letter-spacing:-0.01em;}.cls-5
{font-size:60px;letter-spacing:-0.03em;}.cls-6{letter-spacing:-0.11em;}.cls-7{letter-spacing:0em;}</style></defs><g id="Capa_2" 
data-name="Capa 2"><g id="Capa_1-2" data-name="Capa 1"><path class="cls-1" d="M241.13,125.61c4.42,23.68,2.75,47.14-8.12,68.72-19.75,39.19-
50,65.61-94.68,72.66-13.55,2.14-15.61.91-19.58-12.25-8.09-26.8-2.08-50.85,14.63-72.7,4.76-6.22,9.76-12.25,14.35-18.58,5.72-7.89,9.21-16.61
,8-26.58-.17-1.44-1.69-2.73-2.58-4.08-.93,1.23-2.44,2.34-2.7,3.7-2.89,15.2-13,25.08-25.43,32.34-10,5.83-21,9.9-31.67,14.56-4.1,1.79-8.54,2.8
2-12.63,4.63-10.17,4.5-19.08,2.73-27-4.79-1.68-1.59-3.66-3.07-4.83-5-3.34-5.52-6.69-10.49-13.5-12.71-2.8-.91-4.59-4.91-6.84-7.5l1.12-1.46c7.82.
59,16-2.32,23.39,2.87,2.45-4.43,1.81-6.6-2.94-7.21-4.5-.57-9.14-.12-12.8-.12,6.93-4.84,14.66-10.18,22.32-15.64,2.57-1.84,4.93-4,7.37-6,5.79-4.77
,10-9.66,11-18.21,1.78-15.66,12.16-26.17,26.45-31.8,10-3.93,17.16-9.27,18.38-21.07l10.14,9.08c1.8-10.64,3.31-20.12,5.07-29.57a46.9,46.9,0,0,1,2.67
-8.51c2.35-5.95-.26-13.81-5.59-16.38-4.7-2.26-10.66.39-14.2,6.23-4.35,7.18-2.73,15.25-3.3,23a190.2,190.2,0,0,0-.06,20c.14,4.4-1.47,6.6-6,7.46A50.66,
50.66,0,0,0,88.32,81.54c-9.41,7.83-14.2,18.08-17.09,29.72-1.3,5.22-4.24,10-7.22,14.76-4.7-12.6-6-24.75.42-36.86a20.39,20.39,0,0,0,2.41-8.82c.31-19,.31
-38,.4-57,0-1.8,0-3.61,0-5.38,14.44-1,23.51,10.68,33.27,42.25h4.39a10.27,10.27,0,0,0,.45-2c0-8.83-.62-17.72.2-26.47.62-6.63,1.78-13.84,5-19.48C119.87-4,
141.46-4.08,151,12.07c3.61,6.14,5.45,13.46,7.41,20.43,5.46,19.5,11.08,39,15.66,58.71,4.21,18.1-5.67,29.9-24.11,30.35-.65,0-1.29.12-2.7.25,15.65,2.37,28.22-
4.45,32.48-17.47H221.1c-.58-4.73-2-7.18-7.2-7-10.44.44-20.91.13-31.67.13v-7H214c-.83-4.69-2.68-7-7.58-6.83-8.94.32-17.9.09-27.07.09-.27-2.75-.48-4.83-.73-7
.45h26.1c-2.2-4.38-4.41-6.94-9.33-6.63-6.59.43-13.24.11-19.93.11-.38-2.59-.67-4.5-1.06-7.13h16.11c-5.83-5.36-11-8.35-17.78-7.33-1.42-6.79-2.73-13.09-4.17-20
,1.68.6,3.5,1.09,5.18,1.88C211.56,55,233.53,84.91,241.13,125.61ZM230,146.75v-6.14a15.7,15.7,0,0,0-2.16-.33c-12.61,0-25.23,0-38.33,0,8.94,19.82,9,39.65,1.86,5
9.68l1.13.43h0l2.82-5.07,8.38-15.05c4.56,8.35,7.41,9.94,16.74,7.93,1.65-.35,2.79-3.05,4.16-4.67a24.17,24.17,0,0,0-9.89-1c-5.35.66-7.47-2.08-8.38-7.15h14.74c6.
42,0,6.48-.08,6.67-7.11H203.35V161h26.19v-6.58H200.76c-.84-2.47-1.57-4.62-2.6-7.63Zm-1.47-14.1c.48-.51.95-1,1.42-1.54-1.29-1.65-2.54-4.69-3.88-4.74-11.9-.37-23
.82-.21-35.73-.21-.31.51-.62,1-.92,1.54,1.59,1.65,3.14,4.67,4.79,4.73C205.63,132.85,217.08,132.65,228.52,132.65Zm-2.59-14.25c.53-5-1-7-5.78-6.76-6.14.37-12.32.0
8-18.48.08H184.44c-.28.52-.57,1-.85,1.57,1.57,1.7,3.09,4.83,4.71,4.88C200.76,118.59,213.24,118.4,225.93,118.4ZM156.11,98.7c1.7-7.76-1.79-29.33-7.15-43.57C135.18,
68.9,139.39,93.42,156.11,98.7Zm-39.87,16.84c-2.76-8-7.56-12.88-14.72-15-5.94-1.77-10.23.26-14.24,6C98.23,103.29,103.79,105,116.24,115.54Zm-9.34,44.07-.46-.44L64.
53,174.79a16.11,16.11,0,0,0,15.13.23C88.89,170.17,97.84,164.78,106.9,159.61ZM95.81,121.82q2.09-2.11,4.16-4.24c-1.3-1.17-2.46-2.93-4-3.3-1-.24-2.47,1.52-4.7,3ZM89.
35,68.11c-.74-11.8-5.16-25.55-9.76-30.38V71.66Z"/><path class="cls-2" d="M230,140.61v6.14H198.16c1,3,1.76,5.16,2.6,7.63h28.78V161H203.35v7.25h24.39c-.19,7-.25,7.1
-6.67,7.11H206.33c.91,5.07,3,7.81,8.38,7.15a24.17,24.17,0,0,1,9.89,1c-1.37,1.62-2.51,4.32-4.16,4.67-9.33,2-12.18.42-16.74-7.93l-8.38,15.05q-1.42,2.53-2.83,5.
07l-1.13-.43c7.12-20,7.08-39.86-1.86-59.68,13.1,0,25.72,0,38.33,0A15.7,15.7,0,0,1,230,140.61Z"/><path class="cls-2" d="M229.94,131.11c-.47.51-.94,1-1.42,1.
54-11.44,0-22.89.2-34.32-.22-1.65-.06-3.2-3.08-4.79-4.73.3-.52.61-1,.92-1.54,11.91,0,23.83-.16,35.73.21C227.4,126.42,228.65,129.46,229.94,131.11Z"/>
<path class="cls-2" d="M220.15,111.64c4.77-.28,6.31,1.72,5.78,6.76-12.69,0-25.17.19-37.63-.23-1.62,0-3.14-3.18-4.71-4.88.28-.53.57-1.05.85-1.57h17.
23C207.83,111.72,214,112,220.15,111.64Z"/><path class="cls-2" d="M149,55.13c5.36,14.24,8.85,35.81,7.15,43.57C139.39,93.42,135.18,68.9,149,55.13Z"/>
<path class="cls-1" d="M121.57,265.6c-.1.57-.19,1.13-.29,1.7-6.12-.32-12.32-.14-18.35-1.05-48-7.26-90-46.82-100.38-94.41-10.29-47.17,11.19-98.23,52
-123.61,1.2-.75,2.52-1.32,4.52-2.35,0,4.92.28,9-.15,13.11-.14,1.41-1.81,2.91-3.13,3.93C30,82.75,15.44,109.3,12.54,141.32,10.2,167.12,18.77,190.5,34
.71,211s36.88,34.13,62.23,43.38c-12.84-18.71-17-38-10.77-59.16,9.87,2.18,10.37,2.53,10.18,11.57-.47,21.92,8.75,39.84,22.58,56C119.77,263.73,120.69,
264.65,121.57,265.6Z"/><path class="cls-2" d="M101.52,100.52c7.16,2.14,12,7,14.72,15-12.45-10.53-18-12.25-29-9C91.29,100.78,95.58,98.75,101.52,100.52Z"/>
<path class="cls-2" d="M106.44,159.17l.46.44c-9.06,5.17-18,10.56-27.24,15.41a16.11,16.11,0,0,1-15.13-.23Z"/><path class="cls-2" d="M100,117.58q-2.07,2.13
-4.16,4.24l-4.51-4.5c2.23-1.52,3.71-3.28,4.7-3C97.51,114.65,98.67,116.41,100,117.58Z"/><path class="cls-2" d="M79.59,37.73c4.6,4.83,9,18.58,9.76,30.38l-9.7
6,3.55Z"/><text class="cls-3" transform="translate(260.56 173.43)">IBER<tspan class="cls-4" x="300.05" y="0">C</tspan>
<tspan x="418.18" y="0">AN</tspan></text><text class="cls-5" transform="translate(269.72 233.57)">SE<tspan class="cls-6" x="54.24" y="0">R</tspan>
<tspan x="84.06" y="0">VICIOS </tspan><tspan class="cls-7" x="274.98" y="0">C</tspan><tspan x="317.34" y="0">ANINOS</tspan></text></g></g></svg>